<?xml version="1.0" encoding="UTF-8"?>
<svg version="1.1" xmlns="http://www.w3.org/2000/svg" width="1024" height="1024">
<path d="M0 0 C337.92 0 675.84 0 1024 0 C1024 337.92 1024 675.84 1024 1024 C686.08 1024 348.16 1024 0 1024 C0 686.08 0 348.16 0 0 Z " fill="#F3F4F4" transform="translate(0,0)"/>
<path d="M0 0 C337.92 0 675.84 0 1024 0 C1024 337.92 1024 675.84 1024 1024 C686.08 1024 348.16 1024 0 1024 C0 686.08 0 348.16 0 0 Z M464 73 C463.0583046 73.10012894 462.11660919 73.20025787 461.14637756 73.30342102 C409.2588923 78.90383302 358.35508679 94.84373944 312.10058594 118.91064453 C309.69073561 120.16038328 307.27103012 121.3900821 304.8515625 122.62109375 C295.14053135 127.5950153 285.73421191 132.74351591 276.69335938 138.85986328 C274.88413994 140.07800843 273.0608733 141.27277898 271.234375 142.46484375 C260.54084057 149.46983271 250.36130942 157.01403731 240.4140625 165.05078125 C238.83254893 166.32776389 237.24420801 167.5963475 235.6484375 168.85546875 C225.53826934 176.84151363 215.59648515 185.04502019 206.671875 194.35546875 C205 196 205 196 203 197 C203 197.66 203 198.32 203 199 C202.4225 199.2475 201.845 199.495 201.25 199.75 C198.67060021 201.18299988 196.93878408 202.78424676 195 205 C195 205.66 195 206.32 195 207 C194.34 207 193.68 207 193 207 C193 207.66 193 208.32 193 209 C192.34 209 191.68 209 191 209 C191 209.66 191 210.32 191 211 C190.34 211 189.68 211 189 211 C187.49726114 212.44683052 187.49726114 212.44683052 185.9375 214.375 C183.26933688 217.52178208 180.54691752 220.59207688 177.75 223.625 C172.16713417 229.82923033 167.05002103 236.36214352 162 243 C161.45682129 243.71333496 160.91364258 244.42666992 160.35400391 245.16162109 C151.32437166 257.07991033 142.94332031 269.33318263 135 282 C134.58943359 282.65387695 134.17886719 283.30775391 133.75585938 283.98144531 C131.08160426 288.27073184 128.51129469 292.61348157 126 297 C125.55333984 297.77972168 125.10667969 298.55944336 124.64648438 299.36279297 C111.41858843 322.63690894 100.78758004 346.72532135 92 372 C91.67692871 372.91072266 91.35385742 373.82144531 91.02099609 374.75976562 C81.92047078 400.6004039 76.5750197 427.89395412 73 455 C72.78550652 456.55343382 72.57069162 458.10682332 72.35546875 459.66015625 C67.73042265 494.15035042 68.24568876 530.55955523 73 565 C73.14918884 566.08803925 73.14918884 566.08803925 73.3013916 567.19805908 C76.24819296 588.47123953 80.17746212 609.3069517 86 630 C86.27956543 631.0012793 86.55913086 632.00255859 86.84716797 633.03417969 C94.8986315 661.5080653 105.86765524 689.06854594 119.97070312 715.07470703 C121.21128622 717.39520947 122.36352074 719.75199928 123.5 722.125 C129.3417754 733.9324047 136.49982126 745.19170671 144 756 C144.44601563 756.64437012 144.89203125 757.28874023 145.3515625 757.95263672 C151.98087833 767.50886639 158.80935742 776.85831277 166 786 C166.65226562 786.84691406 167.30453125 787.69382812 167.9765625 788.56640625 C172.38866406 794.22224837 177.13215676 799.49775545 182.05224609 804.7109375 C185.90203287 808.80406574 185.90203287 808.80406574 187 811 C187.66 811 188.32 811 189 811 C189.66 812.32 190.32 813.64 191 815 C191.66 815 192.32 815 193 815 C193.20625 815.53109375 193.4125 816.0621875 193.625 816.609375 C195.57961192 820.00773436 198.22123717 822.51055928 201 825.25 C201.5465625 825.80429687 202.093125 826.35859375 202.65625 826.9296875 C205.32600768 829.99215775 205.32600768 829.99215775 209 831 C209.33 831.99 209.66 832.98 210 834 C211.75397955 835.85356471 211.75397955 835.85356471 213.875 837.625 C214.57367188 838.23601563 215.27234375 838.84703125 215.9921875 839.4765625 C218.02136344 841.1857412 218.02136344 841.1857412 221 842 C221 842.66 221 843.32 221 844 C223.0051746 845.72786322 225.01888 847.34041203 227.125 848.9375 C228.41555163 849.932049 229.70591085 850.92684771 230.99609375 851.921875 C231.66108887 852.43169922 232.32608398 852.94152344 233.01123047 853.46679688 C235.50314518 855.38788997 237.96819806 857.34151839 240.43286133 859.29736328 C256.16216106 871.75911821 272.64913515 882.92872407 290 893 C290.64582031 893.37511719 291.29164063 893.75023437 291.95703125 894.13671875 C301.1404302 899.44389014 310.4627362 904.39949668 320.00537109 909.02929688 C321.94277643 909.97215166 323.87173147 910.93081965 325.80078125 911.890625 C334.82923205 916.31890823 344.08548099 920.12695794 353.4375 923.8125 C354.6224707 924.28083252 355.80744141 924.74916504 357.02832031 925.23168945 C362.86041543 927.50269185 368.67198304 929.60008346 374.68823242 931.32617188 C376.9987878 931.99964667 379.27472141 932.74146992 381.5546875 933.51171875 C437.83733907 952.44897296 500.12569829 957.27743681 559 951 C559.94117676 950.90348145 560.88235352 950.80696289 561.85205078 950.70751953 C585.45089304 948.20852893 609.22765517 943.68825197 632 937 C633.41563232 936.58766113 633.41563232 936.58766113 634.85986328 936.16699219 C637.93057552 935.26745587 640.9973549 934.35581943 644.0625 933.4375 C645.00287109 933.15656494 645.94324219 932.87562988 646.91210938 932.58618164 C652.32142614 930.9325339 657.5551051 929.03809573 662.78735352 926.89038086 C666.34416963 925.4590989 669.99228866 924.35490351 673.65234375 923.22265625 C678.56471667 921.42852238 683.26305638 919.2106265 688 917 C688.90226318 916.57936279 689.80452637 916.15872559 690.73413086 915.7253418 C725.08850147 899.60767221 757.22119867 880.97980055 787.10058594 857.46435547 C789.85585531 855.34017736 792.68498138 853.31800957 795.51806641 851.29907227 C796.00710449 850.87037842 796.49614258 850.44168457 797 850 C797 849.34 797 848.68 797 848 C797.53625 847.78214844 798.0725 847.56429687 798.625 847.33984375 C801.83693621 845.52784684 804.34418485 843.08556402 807 840.5625 C808.16374514 839.4710157 809.32781476 838.37987727 810.4921875 837.2890625 C811.37148926 836.46196777 811.37148926 836.46196777 812.26855469 835.61816406 C814.3728279 833.65156468 816.50468109 831.71704245 818.63989258 829.78417969 C827.60339586 821.65616981 836.1564355 813.22300529 844 804 C844.84691406 803.04222656 845.69382812 802.08445312 846.56640625 801.09765625 C854.67477583 791.88165383 862.02874789 782.16223334 869.30859375 772.28417969 C870.91688238 770.11224718 872.54617479 767.95767371 874.1796875 765.8046875 C876.69029741 762.46081842 879.00527042 759.0298801 881.25 755.5 C881.62640625 754.90815918 882.0028125 754.31631836 882.390625 753.70654297 C883.18853564 752.44963686 883.9847348 751.19164279 884.77929688 749.93261719 C886.00911163 747.98557446 887.24655615 746.043524 888.484375 744.1015625 C891.02973189 740.09201841 893.52967683 736.05617259 896 732 C896.54841553 731.1013623 896.54841553 731.1013623 897.10791016 730.18457031 C940.05625112 658.97712435 958.38213214 570.66821094 946.56835938 426.68652344 C945.93979968 423.71544486 945.35440084 420.73701823 944.765625 417.7578125 C938.48916623 386.98591901 928.18061927 357.4795968 915 329 C914.34366577 327.57965454 914.34366577 327.57965454 913.67407227 326.13061523 C896.98183849 290.24813237 876.10339727 255.59194273 849.140625 226.3984375 C846.1222898 223.01658018 843.37427664 219.44096933 840.62890625 215.8359375 C840.09136719 215.23007813 839.55382812 214.62421875 839 214 C838.34 214 837.68 214 837 214 C836.65122803 213.16335815 836.65122803 213.16335815 836.29541016 212.30981445 C834.66376361 209.40046504 832.63827874 207.39651509 830.2734375 205.04296875 C829.57367294 204.34389153 829.57367294 204.34389153 828.85977173 203.63069153 C827.8719326 202.64586655 826.88167105 201.66346619 825.88916016 200.68334961 C824.39566953 199.20791957 822.9101425 197.7248426 821.42578125 196.24023438 C816.11744294 190.95185076 810.69112101 185.87281676 805 181 C802.58687313 178.8107715 800.18370025 176.61142938 797.78515625 174.40625 C734.37788233 119.6252111 653.50234081 85.72922107 571 74 C569.93217285 73.83628906 568.8643457 73.67257813 567.76416016 73.50390625 C549.92552626 70.82797295 532.12924234 70.71466749 514.125 70.6875 C512.95639435 70.68382416 511.7877887 70.68014832 510.58377075 70.67636108 C494.95334165 70.65071472 479.5422121 71.33466158 464 73 Z " fill="#E8E9E9" transform="translate(0,0)"/>
<path d="M0 0 C-0.35191406 0.44988281 -0.70382812 0.89976562 -1.06640625 1.36328125 C-13.71073275 17.837221 -20.32002611 33.24860756 -17.57421875 54.2578125 C-14.41087135 68.81309195 -5.47981758 80.75674715 5 91 C3.98164063 91.14695312 2.96328125 91.29390625 1.9140625 91.4453125 C-37.41101761 97.50111154 -73.99102221 121.03680501 -97.72705078 152.87402344 C-123.3478207 188.11609513 -134.16397232 230.56965442 -127.5 273.75 C-120.17952447 316.75736671 -95.27435262 354.83585373 -60.3125 380.5625 C-47.68109021 389.08563573 -34.18487046 395.54308808 -20 401 C-19.16855469 401.350625 -18.33710938 401.70125 -17.48046875 402.0625 C-6.43544168 406.23699842 5.17507751 407.5708969 16.89208984 408.140625 C29.80465397 408.93455034 40.38180978 415.63025735 49.21484375 424.8671875 C52.09765711 428.31142403 54.13389984 431.92850875 56 436 C56.3196875 436.639375 56.639375 437.27875 56.96875 437.9375 C61.0135595 447.52519659 60.40978308 460.29564718 57 469.9375 C52.69603484 479.53958564 46.92943556 487.35628748 38 493 C36.7315625 493.86625 36.7315625 493.86625 35.4375 494.75 C12.22740963 506.65261045 -23.648262 494.07609953 -46.46411133 486.89794922 C-49 486 -49 486 -51.15844727 484.87646484 C-54.03134411 483.50914419 -55.98142789 484.19807357 -59 485 C-61.89436993 486.38609916 -61.89436993 486.38609916 -64.875 488.25 C-71.34771196 492.09057699 -77.93081348 495.69162408 -84.5625 499.25 C-92.52569434 503.53417105 -100.41744342 507.91907303 -108.25 512.4375 C-130.62284027 525.27543195 -130.62284027 525.27543195 -137 524 C-140.99042869 521.891849 -143.44644426 520.25259035 -145 516 C-145.265625 512.6015625 -145.265625 512.6015625 -145.25 508.625 C-145.25773437 506.69527344 -145.25773437 506.69527344 -145.265625 504.7265625 C-145.09650688 499.69990305 -144.27219233 494.78651712 -143.52587891 489.81884766 C-142.7095709 483.8909508 -142.23215623 477.93946487 -141.73794556 471.97824097 C-140.64708638 458.90102338 -139.21699806 445.94035039 -137 433 C-137.59079346 432.73372803 -138.18158691 432.46745605 -138.7902832 432.19311523 C-141.04941613 430.97331824 -142.54245566 429.7157357 -144.35546875 427.91015625 C-144.97349365 427.29615967 -145.59151855 426.68216309 -146.22827148 426.04956055 C-146.87481689 425.39383057 -147.5213623 424.73810059 -148.1875 424.0625 C-148.856604 423.38807861 -149.52570801 422.71365723 -150.21508789 422.01879883 C-155.5256176 416.60682266 -160.33304248 410.97779619 -165 405 C-165.62648438 404.26394531 -166.25296875 403.52789063 -166.8984375 402.76953125 C-196.22890885 367.99197237 -213.51150272 321.76583667 -219 277 C-219.09716309 276.21826416 -219.19432617 275.43652832 -219.29443359 274.63110352 C-221.76537757 251.68503937 -221.63741109 226.60789988 -217 204 C-216.80132324 202.98905273 -216.60264648 201.97810547 -216.39794922 200.93652344 C-204.80914808 143.0359215 -171.756716 88.41755486 -125 52 C-124.06414062 51.23558594 -123.12828125 50.47117187 -122.1640625 49.68359375 C-90.67309295 24.46653201 -41.4160441 -1.53392756 0 0 Z " fill="#4E9ABE" transform="translate(486,244)"/>
<path d="M0 0 C1.04333496 0.01393799 2.08666992 0.02787598 3.16162109 0.04223633 C30.17551968 0.66625942 58.22594007 6.24338057 82.875 17.4375 C83.68227539 17.80230469 84.48955078 18.16710937 85.32128906 18.54296875 C123.85187497 36.09840638 160.18539628 61.29797808 185.58056641 95.69433594 C186.90087785 97.47234871 188.2502701 99.22503671 189.60546875 100.9765625 C211.9274382 130.16440757 226.83602032 165.20409908 233.6875 201.1875 C233.89463623 202.26330322 234.10177246 203.33910645 234.31518555 204.44750977 C236.9533209 219.13012823 237.11392806 233.99862633 237.125 248.875 C237.12567474 249.7021048 237.12634949 250.52920959 237.12704468 251.38137817 C237.10878734 265.57620166 236.32435119 279.42974078 233.875 293.4375 C233.71402832 294.3744873 233.55305664 295.31147461 233.38720703 296.27685547 C226.78007801 333.2475822 211.57026473 368.53783256 188.875 398.4375 C188.36018066 399.11603027 187.84536133 399.79456055 187.31494141 400.49365234 C180.20778512 409.73141479 172.40396881 418.17662572 164.1875 426.4375 C163.33293213 427.29762695 162.47836426 428.15775391 161.59790039 429.04394531 C133.38761684 456.93786701 97.47280625 477.26873848 59.875 489.4375 C59.23288574 489.64810059 58.59077148 489.85870117 57.92919922 490.07568359 C49.08571066 492.9376912 40.20262817 495.1145851 31.0625 496.8125 C29.63901245 497.08211548 29.63901245 497.08211548 28.18676758 497.35717773 C27.29368896 497.51516846 26.40061035 497.67315918 25.48046875 497.8359375 C24.68793701 497.97692871 23.89540527 498.11791992 23.07885742 498.26318359 C20.76106273 498.44651199 19.08089228 498.13012438 16.875 497.4375 C17.74511719 496.47263672 17.74511719 496.47263672 18.6328125 495.48828125 C31.32621597 480.8049878 34.88617828 465.90667065 34.05712891 446.92382812 C33.0336504 432.95183742 24.54112568 420.06599476 14.30859375 410.890625 C12.875 409.4375 12.875 409.4375 12.875 407.4375 C13.97714844 407.14617187 15.07929687 406.85484375 16.21484375 406.5546875 C63.54630901 393.85613005 102.06044733 367.85715046 127.03515625 324.73046875 C131.1368464 317.33643367 134.20569849 309.54450037 137.08129883 301.60668945 C137.58762003 300.22291096 138.11177929 298.84544116 138.65893555 297.47729492 C149.78916376 269.48610659 149.52262292 233.00755979 140.875 204.4375 C140.59624023 203.5098584 140.31748047 202.5822168 140.03027344 201.62646484 C134.03886552 182.37500297 124.86435696 164.86475618 111.875 149.4375 C110.90583024 148.25424994 109.93709598 147.07064307 108.96875 145.88671875 C82.20092042 113.53176678 45.75429213 95.82280185 4.5637207 90.30688477 C-12.26956636 88.04681171 -24.88223343 83.43556284 -35.56640625 69.56640625 C-43.37653793 57.97943477 -43.97479231 43.52410338 -41.50390625 30.05078125 C-37.82916498 18.60192066 -28.49161903 9.20194234 -18.1953125 3.33862305 C-12.08783199 0.27195475 -6.76248952 -0.15397087 0 0 Z " fill="#69C48F" transform="translate(530.125,242.5625)"/>
<path d="M0 0 C4.47834404 8.31692465 5.14588628 16.96275858 5.203125 26.21484375 C5.21013931 26.9792981 5.21715363 27.74375244 5.22438049 28.53137207 C5.24184467 31.00014174 5.24823794 33.46867072 5.25 35.9375 C5.25067474 36.78458527 5.25134949 37.63167053 5.25204468 38.50442505 C5.23394243 52.84935958 4.47534668 66.84357348 2 81 C1.83902832 81.9369873 1.67805664 82.87397461 1.51220703 83.83935547 C-5.09492199 120.8100822 -20.30473527 156.10033256 -43 186 C-43.51481934 186.67853027 -44.02963867 187.35706055 -44.56005859 188.05615234 C-51.66721488 197.29391479 -59.47103119 205.73912572 -67.6875 214 C-68.54206787 214.86012695 -69.39663574 215.72025391 -70.27709961 216.60644531 C-98.48738316 244.50036701 -134.40219375 264.83123848 -172 277 C-172.64211426 277.21060059 -173.28422852 277.42120117 -173.94580078 277.63818359 C-182.78928934 280.5001912 -191.67237183 282.6770851 -200.8125 284.375 C-202.23598755 284.64461548 -202.23598755 284.64461548 -203.68823242 284.91967773 C-204.58131104 285.07766846 -205.47438965 285.23565918 -206.39453125 285.3984375 C-207.18706299 285.53942871 -207.97959473 285.68041992 -208.79614258 285.82568359 C-211.11393727 286.00901199 -212.79410772 285.69262438 -215 285 C-214.12988281 284.03513672 -214.12988281 284.03513672 -213.2421875 283.05078125 C-200.54878403 268.3674878 -196.98882172 253.46917065 -197.81787109 234.48632812 C-198.8413496 220.51433742 -207.33387432 207.62849476 -217.56640625 198.453125 C-219 197 -219 197 -219 195 C-217.89785156 194.70867187 -216.79570313 194.41734375 -215.66015625 194.1171875 C-168.32869099 181.41863005 -129.81455267 155.41965046 -104.83984375 112.29296875 C-100.73768274 104.89808487 -97.66141452 97.10435584 -94.79394531 89.16210938 C-94.29351431 87.79931203 -93.76978909 86.44463405 -93.21386719 85.10351562 C-90.68900186 78.93162259 -89.57583679 72.53788918 -88.375 66 C-88.1584375 64.86304688 -87.941875 63.72609375 -87.71875 62.5546875 C-85.95742855 53.18271783 -84.85985436 44.0272066 -84.4375 34.5 C-84.39431641 33.5821875 -84.35113281 32.664375 -84.30664062 31.71875 C-84.20166544 29.47927939 -84.09950752 27.23971908 -84 25 C-83.67 26.32 -83.34 27.64 -83 29 C-64.02601527 22.79033227 -45.2527727 15.89344133 -26.5859375 8.8203125 C-25.12117577 8.2664371 -23.6564134 7.7125634 -22.19165039 7.15869141 C-19.30059877 6.06513176 -16.41225711 4.96475586 -13.52514648 3.86083984 C-12.19002411 3.35492493 -10.85482268 2.84921857 -9.51953125 2.34375 C-8.33464111 1.89193359 -7.14975098 1.44011719 -5.92895508 0.97460938 C-3 0 -3 0 0 0 Z " fill="#34B297" transform="translate(762,455)"/>
<path d="M0 0 C2.52604034 2.16116785 4.3059983 4.62615567 6.2578125 7.31640625 C25.78037435 33.46106203 51.47174553 50.85287284 81.7578125 62.50390625 C83.00498047 63.02984375 83.00498047 63.02984375 84.27734375 63.56640625 C95.32237082 67.74090467 106.93289001 69.07480315 118.64990234 69.64453125 C131.56246647 70.43845659 142.13962228 77.1341636 150.97265625 86.37109375 C153.85546961 89.81533028 155.89171234 93.432415 157.7578125 97.50390625 C158.0775 98.14328125 158.3971875 98.78265625 158.7265625 99.44140625 C162.771372 109.02910284 162.16759558 121.79955343 158.7578125 131.44140625 C154.45384734 141.04349189 148.68724806 148.86019373 139.7578125 154.50390625 C138.9121875 155.08140625 138.0665625 155.65890625 137.1953125 156.25390625 C113.98522213 168.1565167 78.1095505 155.58000578 55.29370117 148.40185547 C52.7578125 147.50390625 52.7578125 147.50390625 50.59936523 146.38037109 C47.72646839 145.01305044 45.77638461 145.70197982 42.7578125 146.50390625 C39.86344257 147.89000541 39.86344257 147.89000541 36.8828125 149.75390625 C30.41010054 153.59448324 23.82699902 157.19553033 17.1953125 160.75390625 C9.23211816 165.0380773 1.34036908 169.42297928 -6.4921875 173.94140625 C-28.86502777 186.7793382 -28.86502777 186.7793382 -35.2421875 185.50390625 C-39.23261619 183.39575525 -41.68863176 181.7564966 -43.2421875 177.50390625 C-43.5078125 174.10546875 -43.5078125 174.10546875 -43.4921875 170.12890625 C-43.49992187 168.19917969 -43.49992187 168.19917969 -43.5078125 166.23046875 C-43.33869438 161.2038093 -42.51437983 156.29042337 -41.76806641 151.32275391 C-40.9517584 145.39485705 -40.47434373 139.44337112 -39.98013306 133.48214722 C-38.88927388 120.40492963 -37.45918556 107.44425664 -35.2421875 94.50390625 C-35.83298096 94.23763428 -36.42377441 93.9713623 -37.0324707 93.69702148 C-39.29160363 92.47722449 -40.78464316 91.21964195 -42.59765625 89.4140625 C-43.21568115 88.80006592 -43.83370605 88.18606934 -44.47045898 87.5534668 C-45.11700439 86.89773682 -45.7635498 86.24200684 -46.4296875 85.56640625 C-47.0987915 84.89198486 -47.76789551 84.21756348 -48.45727539 83.52270508 C-53.7678051 78.11072891 -58.57522998 72.48170244 -63.2421875 66.50390625 C-63.86867188 65.76785156 -64.49515625 65.03179688 -65.140625 64.2734375 C-88.2421875 36.88158482 -88.2421875 36.88158482 -88.2421875 26.50390625 C-76.5036796 22.27862024 -64.69165341 18.29027277 -52.82830811 14.43130493 C-51.3231669 13.94149058 -49.81847962 13.45027896 -48.31427002 12.95761108 C-40.67676457 10.45893932 -33.11953965 8.14003309 -25.2421875 6.50390625 C-23.23154489 5.87006026 -21.23095541 5.20336793 -19.2421875 4.50390625 C-16.37663357 3.55575537 -13.49950349 2.64962598 -10.6171875 1.75390625 C-9.86695313 1.50769531 -9.11671875 1.26148438 -8.34375 1.0078125 C-2.93854721 -0.65016637 -2.93854721 -0.65016637 0 0 Z " fill="#1A71AE" transform="translate(384.2421875,582.49609375)"/>
<path d="M0 0 C0.86496094 0.65871094 1.72992187 1.31742187 2.62109375 1.99609375 C8.58897569 6.58897569 8.58897569 6.58897569 11 9 C11.55534301 13.83941768 11.72429524 15.91355714 9 20 C5.98049662 22.01300225 3.87818849 22.97957289 0.20703125 22.734375 C-3.68699377 21.43866402 -6.15437947 18.46160896 -9.046875 15.64453125 C-29.35187341 -2.53864854 -57.06615046 -9.41275582 -83.73828125 -8.46875 C-106.28331858 -7.09677146 -127.59488541 2.7070723 -144.6640625 17.2734375 C-145.53804688 18.00820313 -146.41203125 18.74296875 -147.3125 19.5 C-148.07175781 20.1703125 -148.83101563 20.840625 -149.61328125 21.53125 C-152.62994993 23.38766149 -154.51415711 23.35946277 -158 23 C-160.77835049 21.73711341 -162.49102772 20.6477829 -164.375 18.25 C-165.39198971 14.58883703 -165.16109376 12.66661189 -164 9 C-147.17068875 -10.87075305 -115.70766329 -23.3566316 -90.42041016 -25.82568359 C-57.07337924 -28.22731564 -26.73965032 -20.43870179 0 0 Z " fill="#62B89F" transform="translate(593,448)"/>
<path d="M0 0 C5.6860081 4.47723435 5.6860081 4.47723435 6.29296875 8.57421875 C5.67410748 13.06096299 4.21515506 14.36130815 0.79296875 17.19921875 C0.46296875 17.52921875 0.13296875 17.85921875 -0.20703125 18.19921875 C-4.10395545 18.70186549 -5.7807437 18.48786305 -9.07421875 16.2578125 C-10.06679688 15.39285156 -11.059375 14.52789062 -12.08203125 13.63671875 C-26.86825282 1.47392872 -45.28919758 -3.12502961 -64.20703125 -1.80078125 C-79.26341106 -0.00667992 -92.07010237 7.51044984 -103.2421875 17.390625 C-106.20703125 19.19921875 -106.20703125 19.19921875 -109.8984375 19.1171875 C-113.98959158 17.98209752 -115.62552991 16.53998519 -118.20703125 13.19921875 C-119.015625 10.76953125 -119.015625 10.76953125 -119.20703125 8.19921875 C-112.62723954 -3.9151992 -94.91744276 -12.02108101 -82.27734375 -16.16015625 C-52.0796911 -24.97046506 -24.80234599 -18.43497743 0 0 Z " fill="#57B0A8" transform="translate(572.20703125,475.80078125)"/>
<path d="M0 0 C3.02806304 3.26712065 3.53331133 5.12978283 3.375 9.5625 C1.33288048 12.96603254 -0.7589774 15.42543453 -4.625 16.5625 C-9.91264825 16.5625 -13.18292705 14.05692698 -17.28125 11.03515625 C-24.72651894 6.3570456 -34.11352538 6.50472745 -42.625 7.5625 C-47.61494393 9.11259397 -51.34925199 11.43862676 -55.25 14.875 C-58.19758248 16.96933492 -60.13010275 17.20695089 -63.69140625 17.01171875 C-67.14372307 16.20966535 -68.61467206 14.36477531 -70.625 11.5625 C-71.75 8.625 -71.75 8.625 -71.625 5.5625 C-65.21081851 -3.39585404 -54.4365302 -8.8463658 -43.7578125 -11.0390625 C-27.13800916 -13.15280307 -13.56024695 -9.80609744 0 0 Z " fill="#4CADA9" transform="translate(549.625,501.4375)"/>
<path d="M0 0 C4.86071192 2.74988483 7.65791299 6.14118565 10.125 11.1875 C11.24254257 16.8869671 10.71915881 21.54052083 8 26.6875 C4.35197588 31.04486214 0.20961856 34.81604802 -5.546875 35.74609375 C-12.10523201 35.92362889 -16.2204414 34.62451132 -21.25 30.375 C-25.36416377 26.04430129 -27.05073145 22.43410834 -27.625 16.5 C-27.45418342 11.15444592 -25.2142604 7.35711731 -21.53125 3.640625 C-15.14068617 -2.04589366 -8.03313365 -3.67359622 0 0 Z " fill="#2BA6AC" transform="translate(524.25,525.625)"/>
<path d="M0 0 C3 1 3 1 3.95703125 2.8203125 C4.23933594 3.58085938 4.52164063 4.34140625 4.8125 5.125 C9.05492216 15.07655532 15.23068124 18.68442715 25 23 C24.505 24.485 24.505 24.485 24 26 C21.99609375 26.8515625 21.99609375 26.8515625 19.4375 27.625 C12.41977683 30.26543089 8.1222312 35.03130776 4.6171875 41.5859375 C3.66192469 43.70354806 2.7853546 45.81444083 2 48 C0.515 47.505 0.515 47.505 -1 47 C-1.921875 44.9609375 -1.921875 44.9609375 -2.75 42.375 C-5.78614632 34.40369449 -10.25745788 30.59650396 -17.9375 27.0625 C-19.61836531 26.35893457 -21.30374941 25.66561732 -23 25 C-23 24.01 -23 23.02 -23 22 C-22.443125 21.86464844 -21.88625 21.72929688 -21.3125 21.58984375 C-14.24154766 19.59516632 -8.66708683 16.24201347 -4.68359375 9.90625 C-3.70090504 7.96262952 -2.8370286 6.00969739 -2 4 C-1.34174977 2.66249155 -0.67724597 1.32799101 0 0 Z " fill="#F8F9F8" transform="translate(967,944)"/>
<path d="M0 0 C1.4540625 0.0309375 1.4540625 0.0309375 2.9375 0.0625 C2.6075 2.0425 2.2775 4.0225 1.9375 6.0625 C0.0625 5.8125 0.0625 5.8125 -2.0625 5.0625 C-3.3125 3 -3.3125 3 -4.0625 1.0625 C-3.0625 0.0625 -3.0625 0.0625 0 0 Z " fill="#1F5EA2" transform="translate(333.0625,655.9375)"/>
<path d="M0 0 C1.90401138 1.90401138 2.93520439 3.33425686 3.19921875 6.046875 C3.1886578 8.03233273 3.09915043 10.0169914 3 12 C2.71125 11.360625 2.4225 10.72125 2.125 10.0625 C1.17176549 7.84793921 1.17176549 7.84793921 -1 7 C-1.72693904 5.02111039 -2.39816251 3.02045442 -3 1 C-2.01 0.67 -1.02 0.34 0 0 Z " fill="#68C97F" transform="translate(763,453)"/>
<path d="M0 0 C1.65 0 3.3 0 5 0 C5 1.32 5 2.64 5 4 C2.36 4.66 -0.28 5.32 -3 6 C-2.67 5.34 -2.34 4.68 -2 4 C-1.34 4 -0.68 4 0 4 C0 2.68 0 1.36 0 0 Z " fill="#37A4B7" transform="translate(582,729)"/>
<path d="M0 0 C0.66 0.66 1.32 1.32 2 2 C-1.465 4.97 -1.465 4.97 -5 8 C-5.66 7.01 -6.32 6.02 -7 5 C-6.030625 4.360625 -5.06125 3.72125 -4.0625 3.0625 C-1.23963731 1.3034741 -1.23963731 1.3034741 0 0 Z " fill="#368CB7" transform="translate(532,727)"/>
<path d="M0 0 C-0.28875 0.556875 -0.5775 1.11375 -0.875 1.6875 C-2.50896585 5.04620758 -3.81934609 8.45803828 -5 12 C-6.46842878 5.75917768 -6.46842878 5.75917768 -4.1875 2.0625 C-2 0 -2 0 0 0 Z " fill="#549BBD" transform="translate(434,454)"/>
<path d="M0 0 C2.31 0 4.62 0 7 0 C7 0.99 7 1.98 7 3 C5.35 3.33 3.7 3.66 2 4 C2 3.34 2 2.68 2 2 C1.34 2 0.68 2 0 2 C0 1.34 0 0.68 0 0 Z " fill="#165599" transform="translate(359,760)"/>
<path d="M0 0 C0.99 0 1.98 0 3 0 C2.979375 0.78375 2.95875 1.5675 2.9375 2.375 C2.81315937 4.98114961 2.81315937 4.98114961 4 7 C2.68 6.67 1.36 6.34 0 6 C-1.125 2.25 -1.125 2.25 0 0 Z " fill="#1D5C9F" transform="translate(325,648)"/>
<path d="M0 0 C-0.66 1.65 -1.32 3.3 -2 5 C-4 3.625 -4 3.625 -6 2 C-6 1.34 -6 0.68 -6 0 C-3.50907189 -1.24546405 -2.58919267 -0.7767578 0 0 Z " fill="#49ABBC" transform="translate(549,650)"/>
<path d="M0 0 C2 3 2 3 2 6 C1.34 6 0.68 6 0 6 C-0.12375 6.639375 -0.2475 7.27875 -0.375 7.9375 C-0.58125 8.618125 -0.7875 9.29875 -1 10 C-1.99 10.495 -1.99 10.495 -3 11 C-2.01 7.37 -1.02 3.74 0 0 Z " fill="#D5ECE2" transform="translate(756,566)"/>
<path d="M0 0 C0 0.99 0 1.98 0 3 C0.66 3.33 1.32 3.66 2 4 C-0.31 4 -2.62 4 -5 4 C-5.33 3.34 -5.66 2.68 -6 2 C-2.25 0 -2.25 0 0 0 Z " fill="#4B9CBE" transform="translate(489,514)"/>
<path d="M0 0 C1.32 0.33 2.64 0.66 4 1 C3.34 3.31 2.68 5.62 2 8 C1.67 8 1.34 8 1 8 C0.67 5.36 0.34 2.72 0 0 Z " fill="#37A3B5" transform="translate(563,679)"/>
<path d="M0 0 C0.99 0.33 1.98 0.66 3 1 C3.6875 3.0625 3.6875 3.0625 4 5 C3.01 5.33 2.02 5.66 1 6 C0.34 5.34 -0.32 4.68 -1 4 C-0.625 1.875 -0.625 1.875 0 0 Z " fill="#2786AE" transform="translate(537,675)"/>
</svg>
